<svg width="24" height="24" viewBox="0 0 24 24" fill="none" xmlns="http://www.w3.org/2000/svg">
<path d="M7.2 9.5H2.4V19.5H7.2V9.5ZM9.6 19.5C9.6 20.8807 8.52548 22 7.2 22H2.4C1.07452 22 0 20.8807 0 19.5V9.5C0 8.11929 1.07452 7 2.4 7H7.2C8.52548 7 9.6 8.11929 9.6 9.5V19.5Z" fill="#CCCCCC"/>
<path d="M14.4 4.5H9.6V19.5H14.4V4.5ZM16.8 19.5C16.8 20.8807 15.7255 22 14.4 22H9.6C8.27452 22 7.2 20.8807 7.2 19.5V4.5C7.2 3.11929 8.27452 2 9.6 2H14.4C15.7255 2 16.8 3.11929 16.8 4.5V19.5Z" fill="#CCCCCC"/>
<path d="M21.6 14.5H16.8V19.5H21.6V14.5ZM24 19.5C24 20.8807 22.9255 22 21.6 22H16.8C15.4745 22 14.4 20.8807 14.4 19.5V14.5C14.4 13.1193 15.4745 12 16.8 12H21.6C22.9255 12 24 13.1193 24 14.5V19.5Z" fill="#CCCCCC"/>
<path d="M21.6 4.5C21.6 5.19036 21.0627 5.75 20.4 5.75C19.7373 5.75 19.2 5.19036 19.2 4.5C19.2 3.80964 19.7373 3.25 20.4 3.25C21.0627 3.25 21.6 3.80964 21.6 4.5Z" fill="#CCCCCC"/>
<path d="M21.6 8.25C21.6 8.94036 21.0627 9.5 20.4 9.5C19.7373 9.5 19.2 8.94036 19.2 8.25C19.2 7.55964 19.7373 7 20.4 7C21.0627 7 21.6 7.55964 21.6 8.25Z" fill="#CCCCCC"/>
<path d="M21.6 19.5V22H2.4V19.5H21.6Z" fill="#CCCCCC"/>
</svg>
