<svg width="24" height="24" viewBox="0 0 24 24" fill="none" xmlns="http://www.w3.org/2000/svg">
<path d="M8 10H4V18H8V10ZM10 18C10 19.1046 9.10457 20 8 20H4C2.89543 20 2 19.1046 2 18V10C2 8.89543 2.89543 8 4 8H8C9.10457 8 10 8.89543 10 10V18Z" fill="#CCCCCC"/>
<path d="M14 6H10V18H14V6ZM16 18C16 19.1046 15.1046 20 14 20H10C8.89543 20 8 19.1046 8 18V6C8 4.89543 8.89543 4 10 4H14C15.1046 4 16 4.89543 16 6V18Z" fill="#CCCCCC"/>
<path d="M20 14H16V18H20V14ZM22 18C22 19.1046 21.1046 20 20 20H16C14.8954 20 14 19.1046 14 18V14C14 12.8954 14.8954 12 16 12H20C21.1046 12 22 12.8954 22 14V18Z" fill="#CCCCCC"/>
<path d="M20 6C20 6.55228 19.5523 7 19 7C18.4477 7 18 6.55228 18 6C18 5.44772 18.4477 5 19 5C19.5523 5 20 5.44772 20 6Z" fill="#CCCCCC"/>
<path d="M20 9C20 9.55228 19.5523 10 19 10C18.4477 10 18 9.55228 18 9C18 8.44772 18.4477 8 19 8C19.5523 8 20 8.44772 20 9Z" fill="#CCCCCC"/>
<path d="M20 18V20H4V18H20Z" fill="#CCCCCC"/>
</svg>
